<?xml version="1.0" encoding="UTF-8"?>
<svg width="110px" height="45px" viewBox="0 0 110 45" version="1.1" xmlns="http://www.w3.org/2000/svg" xmlns:xlink="http://www.w3.org/1999/xlink">
    <!-- Generator: Sketch 54.1 (76490) - https://sketchapp.com -->
    <title>Group 8</title>
    <desc>Created with Sketch.</desc>
    <g id="Page-3" stroke="none" stroke-width="1" fill="none" fill-rule="evenodd">
        <g id="step-2" transform="translate(-38.000000, -34.000000)" fill-rule="nonzero">
            <g id="Group-8" transform="translate(38.000000, 35.000000)">
                <g id="Group-7">
                    <g id="Group-5">
                        <g id="logo">
                            <path d="M36.5902115,5.20072993 L0.842420465,5.20072993" id="Line-3" stroke="#A2A2A2" stroke-linecap="square"></path>
                            <path d="M36.5744469,13.4124088 L22.1581509,13.4124088" id="Line-3-Copy" stroke="#A2A2A2" stroke-linecap="square"></path>
                            <path d="M36.5747014,21.8065693 L22.2189781,21.8065693" id="Line-3-Copy-2" stroke="#A2A2A2" stroke-linecap="square"></path>
                            <path d="M14.3839473,21.8065693 L0.622937483,21.8065693" id="Line-3-Copy-9" stroke="#A2A2A2" stroke-linecap="square"></path>
                            <path d="M14.3839473,13.4124088 L0.622937483,13.4124088" id="Line-3-Copy-10" stroke="#A2A2A2" stroke-linecap="square"></path>
                            <path d="M36.5747014,30.0182482 L22.2189781,30.0182482" id="Line-3-Copy-7" stroke="#A2A2A2" stroke-linecap="square"></path>
                            <path d="M14.2932213,30.0182482 L0.728380757,30.0182482" id="Line-3-Copy-11" stroke="#A2A2A2" stroke-linecap="square"></path>
                            <path d="M36.5902115,38.229927 L0.842420465,38.229927" id="Line-3-Copy-8" stroke="#A2A2A2" stroke-linecap="square"></path>
                            <path d="M14.0036496,0.51703163 L14.0036496,42.8671732" id="Line-4" stroke="#00BAC7" stroke-width="2" stroke-linecap="round" stroke-linejoin="round"></path>
                            <path d="M22.1277372,13.5036496 L22.1277372,21.7153285" id="Line-4-Copy-3" stroke="#A2A2A2" stroke-linecap="square"></path>
                            <path d="M22.1277372,30.1094891 L22.1277372,38.3211679" id="Line-4-Copy-4" stroke="#A2A2A2" stroke-linecap="square"></path>
                        </g>
                        <path d="M63.5889451,18.7340257 L59.4542309,18.7340257 L59.4542309,21.1761668 L63.2262509,21.1761668 L63.2262509,22.3246985 L59.4542309,22.3246985 L59.4542309,26 L58.0518133,26 L58.0518133,17.5371347 L63.5889451,17.5371347 L63.5889451,18.7340257 Z M67.9654569,26.1450777 C66.0069081,26.1450777 64.6044904,24.7063906 64.6044904,22.6753029 C64.6044904,20.6442153 66.0069081,19.2055282 67.9654569,19.2055282 C69.9240057,19.2055282 71.3385132,20.6442153 71.3385132,22.6753029 C71.3385132,24.7063906 69.9240057,26.1450777 67.9654569,26.1450777 Z M67.9654569,24.9602766 C69.1623478,24.9602766 70.0569936,23.9930919 70.0569936,22.6753029 C70.0569936,21.3575139 69.1623478,20.3903293 67.9654569,20.3903293 C66.768566,20.3903293 65.88601,21.3575139 65.88601,22.6753029 C65.88601,23.9930919 66.768566,24.9602766 67.9654569,24.9602766 Z M76.1865276,19.2417976 C77.7823822,19.2417976 78.7737464,20.3177905 78.7616566,22.2158902 L78.7616566,26 L77.4317778,26 L77.4438676,22.3005189 C77.4438676,21.1278076 76.7668384,20.3540599 75.7271149,20.3540599 C74.6873915,20.3540599 73.9861826,21.1278076 73.9861826,22.3005189 L73.9861826,26 L72.6683936,26 L72.6683936,19.3506059 L73.9861826,19.3506059 L73.9861826,20.3903293 C74.4455953,19.652851 75.219343,19.2417976 76.1865276,19.2417976 Z M86.6925719,17.5371347 L86.6925719,18.7340257 L84.0207245,18.7340257 L84.0207245,26 L82.6183068,26 L82.6183068,18.7340257 L79.9464593,18.7340257 L79.9464593,17.5371347 L86.6925719,17.5371347 Z M92.5198607,19.3506059 L93.8376498,19.3506059 L93.8255599,23.3160627 C93.8134701,24.9723664 92.6528486,26.1088083 90.8877367,26.1088083 C89.1226248,26.1088083 87.9378237,24.9723664 87.9378237,23.3160627 L87.9378237,19.3506059 L89.2556127,19.3506059 L89.2556127,23.2677035 C89.2556127,24.2590677 89.9084623,24.9360969 90.8877367,24.9360969 C91.8670111,24.9360969 92.5198607,24.2590677 92.5198607,23.2677035 L92.5198607,19.3506059 Z M99.0120889,19.2417976 C100.607944,19.2417976 101.599308,20.3177905 101.587218,22.2158902 L101.587218,26 L100.257339,26 L100.269429,22.3005189 C100.269429,21.1278076 99.5923997,20.3540599 98.5526762,20.3540599 C97.5129528,20.3540599 96.8117439,21.1278076 96.8117439,22.3005189 L96.8117439,26 L95.4939549,26 L95.4939549,19.3506059 L96.8117439,19.3506059 L96.8117439,20.3903293 C97.2711566,19.652851 98.0449043,19.2417976 99.0120889,19.2417976 Z M106.072538,19.2297078 C108.309152,19.2297078 109.530223,21.2124362 109.300517,23.2072545 L104.017271,23.2072545 C104.222798,24.2469779 105.020725,24.9481867 106.060448,24.9481867 C106.749567,24.9481867 107.329878,24.6338517 107.740932,24.0777206 L108.744386,24.7789294 C108.127805,25.625216 107.245249,26.1208981 106.072538,26.1208981 C104.150259,26.1208981 102.759931,24.6338517 102.759931,22.6753029 C102.759931,20.7167541 104.150259,19.2297078 106.072538,19.2297078 Z M106.060448,20.4265987 C104.972366,20.4265987 104.150259,21.1761668 103.993091,22.2884291 L108.079446,22.2884291 C107.958548,21.3212445 107.305698,20.4265987 106.060448,20.4265987 Z" id="FonTune" fill="#00BAC7"></path>
                    </g>
                </g>
            </g>
        </g>
    </g>
</svg>