<?xml version="1.0" encoding="UTF-8"?>
<svg width="73px" height="95px" viewBox="0 0 73 95" version="1.1" xmlns="http://www.w3.org/2000/svg" xmlns:xlink="http://www.w3.org/1999/xlink">
    <!-- Generator: Sketch 55.2 (78181) - https://sketchapp.com -->
    <title>א copy 5</title>
    <desc>Created with Sketch.</desc>
    <g id="fontune" stroke="none" stroke-width="1" fill="none" fill-rule="evenodd">
        <g id="Choose-font-" transform="translate(-1087.000000, -377.000000)" fill="#F4F6FA">
            <g id="Group-2" transform="translate(143.000000, 329.000000)">
                <path d="M1014.42529,81.76 C1007.86529,80 1006.26529,79.04 1001.94529,85.28 C998.905288,89.6 995.385288,97.76 1001.14529,104.48 L1010.90529,116 C1018.42529,124.96 1014.10529,135.84 1006.74529,141.28 C1004.50529,142.88 1002.10529,142.56 1001.62529,140.96 C1000.98529,139.36 1001.78529,138.08 997.465288,132.96 L964.665288,94.56 C962.425288,92 962.265288,92.8 960.665288,94.08 C958.105288,96.16 958.425288,100 959.705288,102.88 C961.945288,108.64 969.785288,117.12 972.185288,125.92 C974.425288,134.56 970.745288,141.92 970.745288,141.92 L944.025288,141.92 C943.865288,137.92 944.345288,138.08 948.985288,135.84 C951.865288,134.56 951.225288,132.48 949.945288,129.12 C948.185288,124.48 945.945288,118.08 945.145288,114.4 C943.225288,104 948.825288,96.16 958.745288,88.48 C958.905288,88.48 949.305288,77.44 949.305288,77.44 C938.585288,65.12 949.945288,51.84 953.145288,50.24 C955.225288,49.12 957.625288,48 958.425288,50.72 C959.545288,55.2 960.825288,57.44 965.785288,63.52 C969.625288,68.32 990.265288,92 990.745288,92.32 C991.065288,92.8 1000.02529,78.4 1000.02529,78.4 C999.225288,78.08 992.985288,76.16 992.985288,76.16 C987.385288,74.4 986.425288,68.32 987.225288,64 C988.025288,58.4 989.305288,53.6 991.385288,50.4 C992.345288,48.8 993.305288,48 994.745288,48 C996.825288,48 996.825288,50.24 997.305288,51.84 C997.785288,53.44 999.065288,53.92 1000.66529,54.08 C1016.34529,56 1020.02529,59.2 1014.42529,81.76 Z" id="א-copy-5"></path>
            </g>
        </g>
    </g>
</svg>