<?xml version="1.0" encoding="UTF-8"?>
<svg width="51px" height="51px" viewBox="0 0 51 51" version="1.1" xmlns="http://www.w3.org/2000/svg" xmlns:xlink="http://www.w3.org/1999/xlink">
    <!-- Generator: Sketch 55.2 (78181) - https://sketchapp.com -->
    <title>Group 3</title>
    <desc>Created with Sketch.</desc>
    <g id="fontune" stroke="none" stroke-width="1" fill="none" fill-rule="evenodd">
        <g id="download" transform="translate(-717.000000, -450.000000)">
            <g id="Group-3" transform="translate(717.000000, 450.000000)">
                <g id="ai">
                    <path d="M51,43.0156556 C51,47.4253092 47.4253092,51 43.0156556,51 L7.98434442,51 C3.5746908,51 0,47.4253092 0,43.0156556 L0,10.3796477 L10.3796477,0 L43.0156556,0 C47.4253092,0 51,3.5746908 51,7.98434442 L51,43.0156556 Z" id="Path" fill="#FF395D"></path>
                    <polygon id="Path" fill="#5D5D5D" opacity="0.2" points="0 15.8422368 0 10.2798434 5.5358454 10.2798434"></polygon>
                    <path d="M0,10.3796477 L6.9198317,10.3796477 C8.82270059,10.3796477 10.3796477,8.84924853 10.3796477,6.94637965 L10.3796477,0 L0,10.3796477 Z" id="Path" fill="#FE8097"></path>
                </g>
                <g id="music-player" transform="translate(15.000000, 15.000000)" fill="#FFFFFF">
                    <path d="M19.8666667,0.0947968076 C19.7819608,0.0226322188 19.6701961,-0.0102045782 19.5572549,0.00277741128 L7.40039216,1.53427035 C7.20509804,1.55908886 7.05882353,1.72060008 7.05882353,1.91265716 L7.05882353,4.21008749 L7.05882353,5.8183269 L7.05882353,15.5105275 C6.3427451,14.6724256 5.20509804,14.127182 3.92156863,14.127182 C1.75921569,14.127182 0,15.6686024 0,17.563591 C0,19.4585797 1.75921569,21 3.92156863,21 C6.08392157,21 7.84313725,19.4585797 7.84313725,17.563591 C7.84313725,17.475008 7.83568627,17.3879523 7.82784314,17.3012785 C7.83294118,17.2764599 7.84313725,17.2539324 7.84313725,17.2279684 L7.84313725,6.15394951 L19.2156863,4.72096696 L19.2156863,11.6919135 C18.4996078,10.8541934 17.3619608,10.3089498 16.0784314,10.3089498 C13.9160784,10.3089498 12.1568627,11.8503701 12.1568627,13.7453588 C12.1568627,15.6403474 13.9160784,17.1817678 16.0784314,17.1817678 C18.2211765,17.1817678 19.9658824,15.6674569 19.9972549,13.7961413 C19.9972549,13.7911776 20,13.7869775 20,13.7820138 L20,4.28645213 L20,2.67859455 L20,0.381546047 C20,0.271580959 19.9513725,0.166961396 19.8666667,0.0947968076 Z" id="Path"></path>
                </g>
            </g>
        </g>
    </g>
</svg>