<?xml version="1.0" encoding="UTF-8"?>
<svg width="51px" height="51px" viewBox="0 0 51 51" version="1.1" xmlns="http://www.w3.org/2000/svg" xmlns:xlink="http://www.w3.org/1999/xlink">
    <!-- Generator: Sketch 55.2 (78181) - https://sketchapp.com -->
    <title>Group 4</title>
    <desc>Created with Sketch.</desc>
    <g id="fontune" stroke="none" stroke-width="1" fill="none" fill-rule="evenodd">
        <g id="download" transform="translate(-1001.000000, -450.000000)">
            <g id="Group-4" transform="translate(1001.000000, 450.000000)">
                <g id="ai">
                    <path d="M51,43.0156556 C51,47.4253092 47.4253092,51 43.0156556,51 L7.98434442,51 C3.5746908,51 0,47.4253092 0,43.0156556 L0,10.3796477 L10.3796477,0 L43.0156556,0 C47.4253092,0 51,3.5746908 51,7.98434442 L51,43.0156556 Z" id="Path" fill="#F4F6FA"></path>
                    <polygon id="Path" fill="#5D5D5D" opacity="0.2" points="0 15.8422368 0 10.2798434 5.5358454 10.2798434"></polygon>
                    <path d="M0,10.3796477 L6.9198317,10.3796477 C8.82270059,10.3796477 10.3796477,8.84924853 10.3796477,6.94637965 L10.3796477,0 L0,10.3796477 Z" id="Path" fill="#FFFFFF"></path>
                </g>
                <polygon id="F" fill="#9F9F9F" points="20 17 31.9267578 17 31.9267578 19.0240571 22.3291706 19.0240571 22.3291706 24.0392207 30.7680247 24.0392207 30.7680247 26.007054 22.3291706 26.007054 22.3291706 33.5185547 20 33.5185547"></polygon>
            </g>
        </g>
    </g>
</svg>