<?xml version="1.0" encoding="UTF-8"?>
<svg width="50px" height="50px" viewBox="0 0 50 50" version="1.1" xmlns="http://www.w3.org/2000/svg" xmlns:xlink="http://www.w3.org/1999/xlink">
    <!-- Generator: Sketch 54.1 (76490) - https://sketchapp.com -->
    <title>Group 4</title>
    <desc>Created with Sketch.</desc>
    <g id="Symbols" stroke="none" stroke-width="1" fill="none" fill-rule="evenodd">
        <g id="toolbar-editor" transform="translate(-937.000000, -22.000000)" fill-rule="nonzero">
            <g id="Group-4" transform="translate(937.000000, 22.000000)">
                <circle id="Oval-Copy-2" fill="#161616" cx="25" cy="25" r="25"></circle>
                <g id="info" transform="translate(20.000000, 14.000000)" fill="#9256D7">
                    <path d="M9.70060245,19.214106 L9.38436885,20.4443292 C8.43566807,20.8006751 7.67784336,21.0718917 7.11353171,21.2583652 C6.54861153,21.4454178 5.89220877,21.5384615 5.14432341,21.5384615 C3.99582142,21.5384615 3.10249701,21.2707196 2.46536441,20.7389033 C1.82823181,20.2049637 1.50956409,19.5283699 1.50956409,18.7075776 C1.50956409,18.3898391 1.53268829,18.0630279 1.58076229,17.7300395 C1.62924197,17.396665 1.70632264,17.0212085 1.81180146,16.6015466 L2.99742388,12.6080023 C3.1029027,12.2255965 3.19255969,11.8632666 3.26436642,11.5206263 C3.33718737,11.1801095 3.37227936,10.8668108 3.37227936,10.5847842 C3.37227936,10.0747811 3.26132376,9.71804914 3.04042678,9.51748396 C2.81952981,9.31749789 2.39802024,9.21596055 1.7722469,9.21596055 C1.46574981,9.21596055 1.15073328,9.26267545 0.829631433,9.35301665 C0.507109678,9.44374392 0.231444857,9.53138261 0,9.61284411 L0.31704497,8.38165572 C1.09373415,8.08071142 1.83614272,7.82300736 2.54629911,7.60912264 C3.25645551,7.39465881 3.92746303,7.28733038 4.5621615,7.28733038 C5.70275259,7.28733038 6.58289215,7.54966732 7.20095742,8.07434121 C7.8190227,8.59940117 8.12795391,9.28004876 8.12795391,10.1187934 C8.12795391,10.2923335 8.10766953,10.5981037 8.06405809,11.0351389 C8.02146088,11.4731393 7.94214893,11.8744627 7.82652792,12.2394952 L6.64597659,16.2170174 C6.54922007,16.5364933 6.46220004,16.9017188 6.38653928,17.312694 C6.30844439,17.7209668 6.27112112,18.0329141 6.27112112,18.242166 C6.27112112,18.7703145 6.39485588,19.1309072 6.64293393,19.3225927 C6.89283758,19.5142782 7.32327228,19.6096383 7.9346437,19.6096383 C8.22166778,19.6096383 8.54824641,19.5611861 8.9111341,19.466019 C9.27300757,19.3708519 9.53690744,19.287267 9.70060245,19.214106 Z M10,2.51526886 C10,3.2082708 9.72555224,3.80012148 9.17401976,4.28676712 C8.62390718,4.7751501 7.96101341,5.01953463 7.18554129,5.01953463 C6.40763504,5.01953463 5.74311852,4.7751501 5.18671778,4.28676712 C4.63133126,3.79992844 4.35302947,3.2082708 4.35302947,2.51526886 C4.35302947,1.82361818 4.63133126,1.23080232 5.18671778,0.737979498 C5.7421043,0.24592882 6.40783789,0 7.18554129,0 C7.96081056,0 8.62390718,0.246507931 9.17401976,0.737979498 C9.72595793,1.23080232 10,1.82381122 10,2.51526886 Z" id="Shape"></path>
                </g>
            </g>
        </g>
    </g>
</svg>