<?xml version="1.0" encoding="UTF-8"?>
<svg width="42px" height="25px" viewBox="0 0 42 25" version="1.1" xmlns="http://www.w3.org/2000/svg" xmlns:xlink="http://www.w3.org/1999/xlink">
    <!-- Generator: Sketch 54.1 (76490) - https://sketchapp.com -->
    <title>Aa</title>
    <desc>Created with Sketch.</desc>
    <g id="Page-3" stroke="none" stroke-width="1" fill="none" fill-rule="evenodd">
        <g id="step-2" transform="translate(-34.000000, -144.000000)" fill="#00CCDB">
            <g id="Group-3" transform="translate(0.000000, 113.000000)">
                <path d="M47.2987883,31 L57.6614805,54.9723612 L57.6614805,55.1796151 L53.5509459,55.1796151 L51.4784075,50.1709805 L40.2176153,50.1709805 L38.1450769,55.1796151 L34,55.1796151 L34,54.9723612 L44.3626922,31 L47.2987883,31 Z M41.530223,46.958546 L50.1657998,46.958546 L45.8480114,36.4576845 L41.530223,46.958546 Z M67.4715005,35.8013807 C72.7219312,35.8013807 76.0034504,38.3229691 76.0034504,44.264246 L76.0034504,55.1796151 L72.134712,55.1796151 L72.134712,53.6252113 C70.8221043,54.834192 68.9222775,55.5250382 66.6770275,55.5250382 C62.0829006,55.5250382 58.8359237,52.7961959 58.8359237,48.9274575 C58.8359237,45.0932614 62.0829006,42.3644191 66.6770275,42.3644191 C68.9222775,42.3644191 70.8221043,43.0552652 72.134712,44.264246 C72.134712,40.5682191 70.1658005,38.8756461 66.849739,38.8756461 C64.5008621,38.8756461 62.2901545,39.7392037 60.8393776,40.7063883 L59.5958545,38.081173 C61.1848006,37.0103615 64.0863544,35.8013807 67.4715005,35.8013807 Z M67.4715005,52.7961959 C70.338512,52.7961959 72.2728813,51.2072497 72.2728813,48.8929152 C72.2728813,46.5785806 70.338512,44.9896344 67.4715005,44.9896344 C64.604489,44.9896344 62.6355775,46.5785806 62.6355775,48.8929152 C62.6355775,51.2072497 64.604489,52.7961959 67.4715005,52.7961959 Z" id="Aa"></path>
            </g>
        </g>
    </g>
</svg>