<?xml version="1.0" encoding="UTF-8"?>
<svg width="50px" height="50px" viewBox="0 0 50 50" version="1.1" xmlns="http://www.w3.org/2000/svg" xmlns:xlink="http://www.w3.org/1999/xlink">
    <!-- Generator: Sketch 54.1 (76490) - https://sketchapp.com -->
    <title>Group 5</title>
    <desc>Created with Sketch.</desc>
    <g id="Symbols" stroke="none" stroke-width="1" fill="none" fill-rule="evenodd">
        <g id="toolbar-editor" transform="translate(-376.000000, -22.000000)">
            <g id="Group-5" transform="translate(376.000000, 22.000000)">
                <circle id="Oval-Copy" fill="#161616" fill-rule="nonzero" cx="25" cy="25" r="25"></circle>
                <path d="M21.3322361,19 L26.2664461,30.4144724 L26.2664461,30.5131566 L24.3092095,30.5131566 L23.3223675,28.1282884 L17.960526,28.1282884 L16.973684,30.5131566 L15,30.5131566 L15,30.4144724 L19.93421,19 L21.3322361,19 Z M18.5855259,26.5986839 L22.6973675,26.5986833 L20.6414467,21.5986839 L18.5855259,26.5986839 Z M30.9375005,21.2861839 C33.4375002,21.2861839 35,22.4868417 35,25.3157888 L35,30.5131566 L33.1578949,30.5131566 L33.1578949,29.7730251 C32.532895,30.3486829 31.6282899,30.6776302 30.559211,30.6776302 C28.3717113,30.6776302 26.8256588,29.3782883 26.8256588,27.5361832 C26.8256588,25.7105255 28.3717113,24.4111836 30.559211,24.4111836 C31.6282899,24.4111836 32.532895,24.7401309 33.1578949,25.3157888 C33.1578949,23.5559205 32.2203951,22.7499996 30.6414479,22.7499996 C29.5230269,22.7499996 28.4703955,23.1611837 27.7796061,23.62171 L27.1875009,22.3717101 C27.9440798,21.8618418 29.3256588,21.2861839 30.9375005,21.2861839 Z M30.9375005,29.3782883 C32.3026319,29.3782883 33.2236844,28.6217094 33.2236844,27.5197359 C33.2236844,26.4177623 32.3026319,25.6611834 30.9375005,25.6611834 C29.572369,25.6611834 28.6348692,26.4177623 28.6348692,27.5197359 C28.6348692,28.6217094 29.572369,29.3782883 30.9375005,29.3782883 Z" id="Aa" fill="#FF395D"></path>
            </g>
        </g>
    </g>
</svg>