<?xml version="1.0" encoding="UTF-8"?>
<svg width="50px" height="50px" viewBox="0 0 50 50" version="1.1" xmlns="http://www.w3.org/2000/svg" xmlns:xlink="http://www.w3.org/1999/xlink">
    <!-- Generator: Sketch 54.1 (76490) - https://sketchapp.com -->
    <title>Group 3</title>
    <desc>Created with Sketch.</desc>
    <g id="Symbols" stroke="none" stroke-width="1" fill="none" fill-rule="evenodd">
        <g id="toolbar-editor" transform="translate(-796.000000, -22.000000)">
            <g id="Group-3" transform="translate(796.000000, 22.000000)">
                <circle id="Oval-Copy-3" fill="#161616" fill-rule="nonzero" cx="25" cy="25" r="25"></circle>
                <path d="M34.2819475,22.6016365 C34.1055848,22.1607296 33.6028364,21.9500105 33.1642199,22.125228 C32.7244582,22.302736 32.5114486,22.803194 32.6889566,23.2429557 C33.0829098,24.2232578 33.283322,25.2608206 33.283322,26.3304493 C33.283322,30.8975579 29.5682517,34.6137734 25.0011432,34.6137734 C20.4340346,34.6137734 16.7189644,30.8975579 16.7189644,26.3304493 C16.7189644,21.7633408 20.4340346,18.0471253 25.0011432,18.0471253 C25.6607857,18.0471253 26.3066858,18.1330163 26.9365528,18.2841844 L25.8474554,18.7216557 C25.4065485,18.8980184 25.1935389,19.3984764 25.3699017,19.8393833 C25.5050368,20.1749307 25.8268416,20.3787785 26.1669698,20.3787785 C26.2734746,20.3787785 26.3822698,20.3593099 26.4864842,20.3169371 L29.7102581,19.0228466 C30.151165,18.8464838 30.3641746,18.3471711 30.1878119,17.9062642 L28.837606,14.5393386 C28.6612432,14.0995769 28.1607852,13.8854221 27.7198783,14.0617849 C27.2789714,14.2381476 27.0659618,14.7386056 27.2423246,15.1795125 L27.8733368,16.7541801 C26.9457145,16.4758934 25.9825905,16.3304514 24.999998,16.3304514 C19.4857984,16.3304514 15,20.817395 15,26.3315946 C15,31.8457941 19.4857984,36.3327377 24.999998,36.3327377 C30.5141975,36.3327377 34.9999959,31.8469393 34.9999959,26.3315946 C35.0011412,25.0409398 34.7595013,23.7869318 34.2819475,22.6016365 Z" id="Path" fill="#698EFF"></path>
            </g>
        </g>
    </g>
</svg>