<?xml version="1.0" encoding="UTF-8"?>
<svg width="20px" height="20px" viewBox="0 0 20 20" version="1.1" xmlns="http://www.w3.org/2000/svg" xmlns:xlink="http://www.w3.org/1999/xlink">
    <!-- Generator: Sketch 52.5 (67469) - http://www.bohemiancoding.com/sketch -->
    <title>close@3x</title>
    <desc>Created with Sketch.</desc>
    <g id="fontune" stroke="none" stroke-width="1" fill="none" fill-rule="evenodd">
        <g id="how-to-play-copy" transform="translate(-100.000000, -100.000000)" fill="#F4F6FA">
            <g id="close" transform="translate(100.000000, 100.000000)">
                <path d="M11.7616667,9.99375 L19.6216667,2.13375 C20.11,1.64583333 20.11,0.854166667 19.6216667,0.36625 C19.1333333,-0.122083333 18.3425,-0.122083333 17.8541667,0.36625 L9.99416667,8.22625 L2.13375,0.36625 C1.64541667,-0.122083333 0.854583333,-0.122083333 0.36625,0.36625 C-0.122083333,0.854166667 -0.122083333,1.64583333 0.36625,2.13375 L8.22666667,9.99375 L0.36625,17.85375 C-0.122083333,18.3416667 -0.122083333,19.1333333 0.36625,19.62125 C0.610416667,19.865 0.930416667,19.9870833 1.25,19.9870833 C1.56958333,19.9870833 1.88958333,19.865 2.13375,19.6208333 L9.99416667,11.7608333 L17.8541667,19.6208333 C18.0983333,19.865 18.4183333,19.9870833 18.7379167,19.9870833 C19.0575,19.9870833 19.3775,19.865 19.6216667,19.6208333 C20.11,19.1329167 20.11,18.34125 19.6216667,17.8533333 L11.7616667,9.99375 Z" id="Path"></path>
            </g>
        </g>
    </g>
</svg>