<?xml version="1.0" encoding="UTF-8"?>
<svg width="56px" height="11px" viewBox="0 0 56 11" version="1.1" xmlns="http://www.w3.org/2000/svg" xmlns:xlink="http://www.w3.org/1999/xlink">
    <!-- Generator: Sketch 55.2 (78181) - https://sketchapp.com -->
    <title>Fontune</title>
    <desc>Created with Sketch.</desc>
    <g id="fontune" stroke="none" stroke-width="1" fill="none" fill-rule="evenodd">
        <g id="Choose-font-" transform="translate(-55.000000, -55.000000)" fill="#F4F6FA" fill-rule="nonzero">
            <path d="M61.5077707,57.3316078 L57.3488769,57.3316078 L57.3488769,59.2383431 L61.093263,59.2383431 L61.093263,61.1588954 L57.3488769,61.1588954 L57.3488769,65 L55,65 L55,55.328154 L61.5077707,55.328154 L61.5077707,57.3316078 Z M66.4404138,65.17962 C64.1744385,65.17962 62.5440416,63.5354062 62.5440416,61.2003462 C62.5440416,58.8652862 64.1744385,57.2210724 66.4404138,57.2210724 C68.7063892,57.2210724 70.3367861,58.8652862 70.3367861,61.2003462 C70.3367861,63.5354062 68.7063892,65.17962 66.4404138,65.17962 Z M66.4404138,63.1899831 C67.4352323,63.1899831 68.1951631,62.3471508 68.1951631,61.2003462 C68.1951631,60.0535416 67.4352323,59.2107093 66.4404138,59.2107093 C65.4455954,59.2107093 64.6856646,60.0535416 64.6856646,61.2003462 C64.6856646,62.3471508 65.4455954,63.1899831 66.4404138,63.1899831 Z M75.9740924,57.2625232 C77.7426585,57.2625232 78.7927447,58.3816939 78.7927447,60.523317 L78.7927447,65 L76.582037,65 L76.582037,60.6614862 C76.582037,59.7495693 76.0155432,59.1139908 75.1865278,59.1139908 C74.3575124,59.1139908 73.7910186,59.7495693 73.7910186,60.6614862 L73.7910186,65 L71.5803109,65 L71.5803109,57.4006924 L73.7910186,57.4006924 L73.7910186,58.2020739 C74.3022447,57.5941293 75.0621755,57.2625232 75.9740924,57.2625232 Z M83.8221064,63.0656308 L84.5129526,63.0656308 L84.5129526,65 L83.006908,65 C81.3488772,65 80.6442141,64.1295339 80.6442141,62.66494 L80.6442141,59.1278078 L79.8704665,59.1278078 L79.8704665,57.4006924 L80.6442141,57.4006924 L80.6442141,55.8946478 L82.8549218,55.4801401 L82.8549218,57.4006924 L84.3056987,57.4006924 L84.3056987,59.1278078 L82.8549218,59.1278078 L82.8549218,61.9050093 C82.8549218,62.8031093 83.0759926,63.0656308 83.8221064,63.0656308 Z M90.4265966,57.4006924 L92.6373043,57.4006924 L92.6096705,61.9740939 C92.5958535,63.8531954 91.2003443,65.1519862 89.100172,65.1519862 C86.9999998,65.1519862 85.5630398,63.8531954 85.5630398,61.9740939 L85.5630398,57.4006924 L87.7737475,57.4006924 L87.7737475,61.8911923 C87.7737475,62.66494 88.3126074,63.1899831 89.100172,63.1899831 C89.8877367,63.1899831 90.4265966,62.66494 90.4265966,61.8911923 L90.4265966,57.4006924 Z M98.6200337,57.2625232 C100.3886,57.2625232 101.438686,58.3816939 101.438686,60.523317 L101.438686,65 L99.2279783,65 L99.2279783,60.6614862 C99.2279783,59.7495693 98.6614845,59.1139908 97.8324691,59.1139908 C97.0034537,59.1139908 96.4369599,59.7495693 96.4369599,60.6614862 L96.4369599,65 L94.2262522,65 L94.2262522,57.4006924 L96.4369599,57.4006924 L96.4369599,58.2020739 C96.948186,57.5941293 97.7081168,57.2625232 98.6200337,57.2625232 Z M106.371329,57.2625232 C108.941277,57.2625232 110.405871,59.6114001 110.088081,62.0431785 L104.713298,62.0431785 C104.989637,62.7478416 105.597582,63.1761662 106.357512,63.1761662 C106.937823,63.1761662 107.449049,62.8998277 107.780655,62.4438693 L109.46632,63.6044908 C108.761657,64.5716754 107.725388,65.1381692 106.371329,65.1381692 C104.160622,65.1381692 102.544042,63.4386877 102.544042,61.2003462 C102.544042,58.9481878 104.160622,57.2625232 106.371329,57.2625232 Z M106.357512,59.2521601 C105.528497,59.2521601 104.892918,59.7357524 104.671848,60.523317 L107.974092,60.523317 C107.794472,59.8324708 107.255612,59.2521601 106.357512,59.2521601 Z" id="Fontune"></path>
        </g>
    </g>
</svg>