<?xml version="1.0" encoding="UTF-8"?>
<svg width="50px" height="50px" viewBox="0 0 50 50" version="1.1" xmlns="http://www.w3.org/2000/svg" xmlns:xlink="http://www.w3.org/1999/xlink">
    <!-- Generator: Sketch 54.1 (76490) - https://sketchapp.com -->
    <title>Group 5</title>
    <desc>Created with Sketch.</desc>
    <g id="Symbols" stroke="none" stroke-width="1" fill="none" fill-rule="evenodd">
        <g id="toolbar-editor" transform="translate(-376.000000, -22.000000)">
            <g id="Group-5" transform="translate(376.000000, 22.000000)">
                <circle id="Oval-Copy" fill="#161616" fill-rule="nonzero" cx="25" cy="25" r="25"></circle>
                <path d="M20.5986833,18 L26.5197353,31.6973669 L26.5197353,31.8157879 L24.1710514,31.8157879 L22.986841,28.9539461 L16.5526312,28.9539461 L15.3684208,31.8157879 L13,31.8157879 L13,31.6973669 L18.921052,18 L20.5986833,18 Z M17.3026311,27.1184207 L22.236841,27.11842 L19.7697361,21.1184207 L17.3026311,27.1184207 Z M32.1250006,20.7434207 C35.1250002,20.7434207 37,22.18421 37,25.5789465 L37,31.8157879 L34.7894739,31.8157879 L34.7894739,30.9276301 C34.039474,31.6184195 32.9539478,32.0131563 31.6710532,32.0131563 C29.0460535,32.0131563 27.1907906,30.4539459 27.1907906,28.2434207 C27.1907906,26.0526307 29.0460535,24.4934203 31.6710532,24.4934203 C32.9539478,24.4934203 34.039474,24.8881571 34.7894739,25.5789465 C34.7894739,23.4671046 33.6644741,22.4999995 31.7697374,22.4999995 C30.4276323,22.4999995 29.1644746,22.9934205 28.3355273,23.546052 L27.6250011,22.0460522 C28.5328957,21.4342101 30.1907906,20.7434207 32.1250006,20.7434207 Z M32.1250006,30.4539459 C33.7631583,30.4539459 34.8684213,29.5460513 34.8684213,28.223683 C34.8684213,26.9013148 33.7631583,25.9934201 32.1250006,25.9934201 C30.4868429,25.9934201 29.361843,26.9013148 29.361843,28.223683 C29.361843,29.5460513 30.4868429,30.4539459 32.1250006,30.4539459 Z" id="Aa" fill="#FF395D"></path>
            </g>
        </g>
    </g>
</svg>