<?xml version="1.0" encoding="UTF-8"?>
<svg width="50px" height="50px" viewBox="0 0 50 50" version="1.1" xmlns="http://www.w3.org/2000/svg" xmlns:xlink="http://www.w3.org/1999/xlink">
    <!-- Generator: Sketch 54.1 (76490) - https://sketchapp.com -->
    <title>Group 4</title>
    <desc>Created with Sketch.</desc>
    <g id="Symbols" stroke="none" stroke-width="1" fill="none" fill-rule="evenodd">
        <g id="toolbar-editor" transform="translate(-937.000000, -22.000000)" fill-rule="nonzero">
            <g id="Group-4" transform="translate(937.000000, 22.000000)">
                <circle id="Oval-Copy-2" fill="#161616" cx="25" cy="25" r="25"></circle>
                <g id="info" transform="translate(19.000000, 12.000000)" fill="#9256D7">
                    <path d="M11.6407229,23.2415426 L11.2612426,24.7178105 C10.1228017,25.1454255 9.21341204,25.4708854 8.53623806,25.6946536 C7.85833384,25.9191168 7.07065052,26.0307692 6.1731881,26.0307692 C4.7949857,26.0307692 3.72299641,25.7094789 2.95843729,25.0712994 C2.19387817,24.4305718 1.81147691,23.6186592 1.81147691,22.6337085 C1.81147691,22.2524223 1.83922595,21.8602488 1.89691474,21.4606628 C1.95509037,21.0606134 2.04758717,20.6100656 2.17416175,20.1064714 L3.59690866,15.3142182 C3.72348323,14.8553312 3.83107162,14.4205352 3.9172397,14.009367 C4.00462484,13.6007468 4.04673523,13.2247884 4.04673523,12.8863564 C4.04673523,12.2743527 3.91358851,11.8462744 3.64851214,11.6055961 C3.38343577,11.3656128 2.87762429,11.243768 2.12669628,11.243768 C1.75889977,11.243768 1.38087994,11.2998259 0.995557719,11.4082354 C0.608531613,11.5171081 0.277733828,11.6222745 0,11.7200283 L0.380453965,10.2426022 C1.31248098,9.88146909 2.20337127,9.57222422 3.05555894,9.31556255 C3.90774661,9.05820596 4.71295564,8.92941184 5.47459381,8.92941184 C6.84330311,8.92941184 7.89947058,9.24421617 8.64114891,9.87382484 C9.38282724,10.5038968 9.7535447,11.3206739 9.7535447,12.3271675 C9.7535447,12.5354156 9.72920343,12.9023398 9.67686971,13.4267821 C9.62575306,13.9523825 9.53057871,14.4339706 9.39183351,14.8720096 L7.97517191,19.6450363 C7.85906408,20.0284073 7.75464005,20.4666779 7.66384714,20.9598482 C7.57013327,21.4497755 7.52534534,21.8241124 7.52534534,22.0752146 C7.52534534,22.7089928 7.67382706,23.141704 7.97152072,23.3717266 C8.2714051,23.6017492 8.78792673,23.7161814 9.52157245,23.7161814 C9.86600134,23.7161814 10.2578957,23.6580387 10.6933609,23.5438382 C11.1276091,23.4296376 11.4442889,23.3293357 11.6407229,23.2415426 Z M12,3.20293802 C12,4.03454034 11.6706627,4.74476115 11.0088237,5.32873593 C10.3486886,5.91479551 9.55321609,6.20805694 8.62264955,6.20805694 C7.68916205,6.20805694 6.89174223,5.91479551 6.22406134,5.32873593 C5.55759752,4.74452951 5.22363537,4.03454034 5.22363537,3.20293802 C5.22363537,2.37295721 5.55759752,1.66157817 6.22406134,1.07019078 C6.89052516,0.479729969 7.68940546,0.184615385 8.62264955,0.184615385 C9.55297268,0.184615385 10.3486886,0.480424901 11.0088237,1.07019078 C11.6711495,1.66157817 12,2.37318885 12,3.20293802 Z" id="Shape"></path>
                </g>
            </g>
        </g>
    </g>
</svg>