<?xml version="1.0" encoding="UTF-8"?>
<svg width="114px" height="11px" viewBox="0 0 114 11" version="1.1" xmlns="http://www.w3.org/2000/svg" xmlns:xlink="http://www.w3.org/1999/xlink">
    <!-- Generator: Sketch 54.1 (76490) - https://sketchapp.com -->
    <title>Group 6</title>
    <desc>Created with Sketch.</desc>
    <defs>
        <linearGradient x1="26.6389415%" y1="49.5743528%" x2="101.953247%" y2="51.5965367%" id="linearGradient-1">
            <stop stop-color="#0057FF" offset="0%"></stop>
            <stop stop-color="#427DFF" offset="100%"></stop>
        </linearGradient>
        <path d="M6.50777069,2.00345382 L2.34887689,2.00345382 L2.34887689,3.91018918 L6.093263,3.91018918 L6.093263,5.83074147 L2.34887689,5.83074147 L2.34887689,9.67184603 L7.10542736e-15,9.67184603 L7.10542736e-15,0 L6.50777069,0 L6.50777069,2.00345382 Z M11.4404138,9.85146603 C9.17443849,9.85146603 7.54404158,8.2072522 7.54404158,5.87219223 C7.54404158,3.53713226 9.17443849,1.89291844 11.4404138,1.89291844 C13.7063892,1.89291844 15.3367861,3.53713226 15.3367861,5.87219223 C15.3367861,8.2072522 13.7063892,9.85146603 11.4404138,9.85146603 Z M11.4404138,7.86182913 C12.4352323,7.86182913 13.1951631,7.01899683 13.1951631,5.87219223 C13.1951631,4.72538763 12.4352323,3.88255534 11.4404138,3.88255534 C10.4455954,3.88255534 9.68566463,4.72538763 9.68566463,5.87219223 C9.68566463,7.01899683 10.4455954,7.86182913 11.4404138,7.86182913 Z M20.9740924,1.93436921 C22.7426585,1.93436921 23.7927447,3.05353996 23.7927447,5.19516301 L23.7927447,9.67184603 L21.582037,9.67184603 L21.582037,5.33333224 C21.582037,4.42141533 21.0155432,3.78583688 20.1865278,3.78583688 C19.3575124,3.78583688 18.7910186,4.42141533 18.7910186,5.33333224 L18.7910186,9.67184603 L16.5803109,9.67184603 L16.5803109,2.07253844 L18.7910186,2.07253844 L18.7910186,2.87391996 C19.3022447,2.26597536 20.0621755,1.93436921 20.9740924,1.93436921 Z M28.8221064,7.73747683 L29.5129526,7.73747683 L29.5129526,9.67184603 L28.006908,9.67184603 C26.3488772,9.67184603 25.6442141,8.80137989 25.6442141,7.33678606 L25.6442141,3.7996538 L24.8704665,3.7996538 L24.8704665,2.07253844 L25.6442141,2.07253844 L25.6442141,0.566493839 L27.8549218,0.151986152 L27.8549218,2.07253844 L29.3056987,2.07253844 L29.3056987,3.7996538 L27.8549218,3.7996538 L27.8549218,6.5768553 C27.8549218,7.47495529 28.0759926,7.73747683 28.8221064,7.73747683 Z M35.4265966,2.07253844 L37.6373043,2.07253844 L37.6096705,6.64593992 C37.5958535,8.52504143 36.2003443,9.82383218 34.100172,9.82383218 C31.9999998,9.82383218 30.5630398,8.52504143 30.5630398,6.64593992 L30.5630398,2.07253844 L32.7737475,2.07253844 L32.7737475,6.56303838 C32.7737475,7.33678606 33.3126074,7.86182913 34.100172,7.86182913 C34.8877367,7.86182913 35.4265966,7.33678606 35.4265966,6.56303838 L35.4265966,2.07253844 Z M43.6200337,1.93436921 C45.3885998,1.93436921 46.438686,3.05353996 46.438686,5.19516301 L46.438686,9.67184603 L44.2279783,9.67184603 L44.2279783,5.33333224 C44.2279783,4.42141533 43.6614845,3.78583688 42.8324691,3.78583688 C42.0034537,3.78583688 41.4369599,4.42141533 41.4369599,5.33333224 L41.4369599,9.67184603 L39.2262522,9.67184603 L39.2262522,2.07253844 L41.4369599,2.07253844 L41.4369599,2.87391996 C41.948186,2.26597536 42.7081168,1.93436921 43.6200337,1.93436921 Z M51.3713292,1.93436921 C53.9412769,1.93436921 55.4058707,4.2832461 55.0880815,6.71502453 L49.7132985,6.71502453 C49.9896369,7.4196876 50.5975815,7.84801221 51.3575123,7.84801221 C51.9378231,7.84801221 52.4490492,7.57167375 52.7806554,7.1157153 L54.46632,8.27633682 C53.7616569,9.24352142 52.7253877,9.81001526 51.3713292,9.81001526 C49.1606216,9.81001526 47.5440416,8.11053374 47.5440416,5.87219223 C47.5440416,3.6200338 49.1606216,1.93436921 51.3713292,1.93436921 Z M51.3575123,3.9240061 C50.5284969,3.9240061 49.8929185,4.40759841 49.6718477,5.19516301 L52.9740923,5.19516301 C52.7944723,4.50431687 52.2556123,3.9240061 51.3575123,3.9240061 Z" id="path-2"></path>
    </defs>
    <g id="Symbols" stroke="none" stroke-width="1" fill="none" fill-rule="evenodd">
        <g id="toolbar-editor" transform="translate(-26.000000, -55.000000)" fill-rule="nonzero">
            <g id="Group-6" transform="translate(26.259931, 55.328154)">
                <g id="Fontune">
                    <use fill="#0057FF" xlink:href="#path-2"></use>
                    <use fill="url(#linearGradient-1)" xlink:href="#path-2"></use>
                </g>
                <path d="M83.2374779,8.04144892 C83.9110529,8.04144892 84.5673567,7.75647489 84.8609664,7.39378066 L85.3531942,7.91191527 C84.9214154,8.44732103 84.1269423,8.76683738 83.1943,8.76683738 C81.4671847,8.76683738 80.1632126,7.42832297 80.1632126,5.64939415 C80.1632126,3.87046532 81.4671847,2.53195092 83.1943,2.53195092 C84.1269423,2.53195092 84.9214154,2.85146726 85.3531942,3.38687302 L84.8609664,3.90500763 C84.5673567,3.5423134 83.9110529,3.25733937 83.2374779,3.25733937 C81.9335058,3.25733937 80.9490501,4.27633743 80.9490501,5.64939415 C80.9490501,7.02245086 81.9335058,8.04144892 83.2374779,8.04144892 Z M89.6796194,6.22797779 L91.0181338,8.62003257 L91.0181338,8.67184603 L90.1718473,8.67184603 L88.8937819,6.30569798 L87.2616579,6.30569798 L87.2616579,8.67184603 L86.4499137,8.67184603 L86.4499137,2.62694226 L89.0233156,2.62694226 C90.2322963,2.62694226 90.9835915,3.34369514 90.9835915,4.46632012 C90.9835915,5.36442011 90.4999992,6.0034528 89.6796194,6.22797779 Z M87.2616579,3.31778841 L87.2616579,5.61485184 L88.9283242,5.61485184 C89.688255,5.61485184 90.1718473,5.15716627 90.1718473,4.46632012 C90.1718473,3.77547398 89.688255,3.31778841 88.9283242,3.31778841 L87.2616579,3.31778841 Z M96.3376503,3.31778841 L92.9870465,3.31778841 L92.9870465,5.21761531 L96.078583,5.21761531 L96.078583,5.88255472 L92.9870465,5.88255472 L92.9870465,7.98099989 L96.3376503,7.98099989 L96.3376503,8.67184603 L92.1753023,8.67184603 L92.1753023,2.62694226 L96.3376503,2.62694226 L96.3376503,3.31778841 Z M100.025043,2.62694226 L102.632987,8.62003257 L102.632987,8.67184603 L101.795336,8.67184603 L101.216752,7.29015374 L98.2288428,7.29015374 L97.6502591,8.67184603 L96.8126082,8.67184603 L96.8126082,8.62003257 L99.4205524,2.62694226 L100.025043,2.62694226 Z M98.5051812,6.64248548 L100.940414,6.64248548 L99.7227975,3.73229609 L98.5051812,6.64248548 Z M107.788427,2.62694226 L107.788427,3.31778841 L105.784974,3.31778841 L105.784974,8.67184603 L104.973229,8.67184603 L104.973229,3.31778841 L102.969776,3.31778841 L102.969776,2.62694226 L107.788427,2.62694226 Z M113.082037,3.31778841 L109.731433,3.31778841 L109.731433,5.21761531 L112.82297,5.21761531 L112.82297,5.88255472 L109.731433,5.88255472 L109.731433,7.98099989 L113.082037,7.98099989 L113.082037,8.67184603 L108.919689,8.67184603 L108.919689,2.62694226 L113.082037,2.62694226 L113.082037,3.31778841 Z" id="CREATE" fill="#F4F6FA"></path>
                <polygon id="/" fill="#F4F6FA" points="69.5224519 2.62694226 69.5224519 2.67012015 66.664076 8.67184603 65.8782385 8.67184603 65.8782385 8.62866815 68.7366145 2.62694226"></polygon>
            </g>
        </g>
    </g>
</svg>