<?xml version="1.0" encoding="UTF-8"?>
<svg width="50px" height="50px" viewBox="0 0 50 50" version="1.1" xmlns="http://www.w3.org/2000/svg" xmlns:xlink="http://www.w3.org/1999/xlink">
    <!-- Generator: Sketch 54.1 (76490) - https://sketchapp.com -->
    <title>Group 9</title>
    <desc>Created with Sketch.</desc>
    <g id="Symbols" stroke="none" stroke-width="1" fill="none" fill-rule="evenodd">
        <g id="toolbar-editor" transform="translate(-656.000000, -22.000000)" fill-rule="nonzero">
            <g id="Group-9" transform="translate(656.000000, 22.000000)">
                <g id="Group" fill="#161616">
                    <circle id="Oval-Copy-2" cx="25" cy="25" r="25"></circle>
                </g>
                <g id="drop" transform="translate(15.000000, 10.000000)" fill="#B0B7C2">
                    <path d="M10.9455908,1.11324671 L9.99990084,0 L9.05421083,1.11324671 C8.68464109,1.5483962 0,11.8601233 0,19.4789488 C0,24.9795983 4.48590439,29.4545455 9.99990084,29.4545455 C15.5138973,29.4545455 20,24.9795983 20,19.4789488 C20,11.8601233 11.3152597,1.5483962 10.9455908,1.11324671 Z M9.99990084,3.89161533 C11.7883527,6.19526643 15.6088927,11.4814572 17.0002082,16.2462402 C15.8210953,16.4088648 15.1033744,16.9010912 14.5066289,17.3117085 C13.9079001,17.7237107 13.5123504,17.9958399 12.5860958,17.9958399 C11.6600395,17.9958399 11.2644898,17.7237107 10.665761,17.3118074 C9.93971065,16.812261 9.03606453,16.1905482 7.3381459,16.1905482 C5.64012811,16.1905482 4.736482,16.812261 4.01033248,17.3118074 C3.53684294,17.6375513 3.18948506,17.8752563 2.60721687,17.9607232 C3.42836178,12.8157903 7.99329678,6.47629841 9.99990084,3.89161533 Z" id="Shape"></path>
                </g>
            </g>
        </g>
    </g>
</svg>