<?xml version="1.0" encoding="UTF-8"?>
<svg width="51px" height="50px" viewBox="0 0 51 50" version="1.1" xmlns="http://www.w3.org/2000/svg" xmlns:xlink="http://www.w3.org/1999/xlink">
    <!-- Generator: Sketch 54.1 (76490) - https://sketchapp.com -->
    <title>Group 3</title>
    <desc>Created with Sketch.</desc>
    <g id="Symbols" stroke="none" stroke-width="1" fill="none" fill-rule="evenodd">
        <g id="toolbar-editor" transform="translate(-796.000000, -22.000000)">
            <g id="Group-3" transform="translate(796.000000, 22.000000)">
                <circle id="Oval-Copy-3" fill="#161616" fill-rule="nonzero" cx="25.4691463" cy="25" r="25"></circle>
                <path d="M33.3061463,22.5109506 C33.1521463,22.1259506 32.7131463,21.9419506 32.3301463,22.0949506 C31.9461463,22.2499506 31.7601463,22.6869506 31.9151463,23.0709506 C32.2591463,23.9269506 32.4341463,24.8329506 32.4341463,25.7669506 C32.4341463,29.7549506 29.1901463,32.9999506 25.2021463,32.9999506 C21.2141463,32.9999506 17.9701463,29.7549506 17.9701463,25.7669506 C17.9701463,21.7789506 21.2141463,18.5339506 25.2021463,18.5339506 C25.7781463,18.5339506 26.3421463,18.6089506 26.8921463,18.7409506 L25.9411463,19.1229506 C25.5561463,19.2769506 25.3701463,19.7139506 25.5241463,20.0989506 C25.6421463,20.3919506 25.9231463,20.5699506 26.2201463,20.5699506 C26.3131463,20.5699506 26.4081463,20.5529506 26.4991463,20.5159506 L29.3141463,19.3859506 C29.6991463,19.2319506 29.8851463,18.7959506 29.7311463,18.4109506 L28.5521463,15.4709506 C28.3981463,15.0869506 27.9611463,14.8999506 27.5761463,15.0539506 C27.1911463,15.2079506 27.0051463,15.6449506 27.1591463,16.0299506 L27.7101463,17.4049506 C26.9001463,17.1619506 26.0591463,17.0349506 25.2011463,17.0349506 C20.3861463,17.0349506 16.4691463,20.9529506 16.4691463,25.7679506 C16.4691463,30.5829506 20.3861463,34.5009506 25.2011463,34.5009506 C30.0161463,34.5009506 33.9331463,30.5839506 33.9331463,25.7679506 C33.9341463,24.6409506 33.7231463,23.5459506 33.3061463,22.5109506 Z" id="Path" fill="#698EFF"></path>
            </g>
        </g>
    </g>
</svg>