<?xml version="1.0" encoding="UTF-8"?>
<svg width="50px" height="50px" viewBox="0 0 50 50" version="1.1" xmlns="http://www.w3.org/2000/svg" xmlns:xlink="http://www.w3.org/1999/xlink">
    <!-- Generator: Sketch 54.1 (76490) - https://sketchapp.com -->
    <title>Group 2</title>
    <desc>Created with Sketch.</desc>
    <g id="Symbols" stroke="none" stroke-width="1" fill="none" fill-rule="evenodd">
        <g id="toolbar-editor" transform="translate(-516.000000, -22.000000)" fill-rule="nonzero">
            <g id="Group-2" transform="translate(516.000000, 22.000000)">
                <circle id="Oval" fill="#161616" cx="25" cy="25" r="25"></circle>
                <g id="Group-7" transform="translate(14.000000, 15.000000)" stroke="#01ED95">
                    <g id="Group-8" transform="translate(3.000000, 0.000000)">
                        <path d="M0.5,0.5 L0.5,11 C0.5,11.2761424 0.723857625,11.5 1,11.5 L2,11.5 C2.27614237,11.5 2.5,11.2761424 2.5,11 L2.5,0.5 L0.5,0.5 Z" id="Rectangle"></path>
                        <path d="M7.5,0.5 L7.5,11 C7.5,11.2761424 7.72385763,11.5 8,11.5 L9,11.5 C9.27614237,11.5 9.5,11.2761424 9.5,11 L9.5,0.5 L7.5,0.5 Z" id="Rectangle-Copy"></path>
                        <path d="M1.5,12 L1.5,19.122784" id="Line" stroke-linecap="square"></path>
                        <path d="M8.5,12 L8.5,19.122784" id="Line-Copy" stroke-linecap="square"></path>
                        <path d="M14.5,0.5 L14.5,11 C14.5,11.2761424 14.7238576,11.5 15,11.5 L16,11.5 C16.2761424,11.5 16.5,11.2761424 16.5,11 L16.5,0.5 L14.5,0.5 Z" id="Rectangle-Copy-2"></path>
                        <path d="M15.5,12 L15.5,19.122784" id="Line-Copy-2" stroke-linecap="square"></path>
                    </g>
                    <rect id="Rectangle" x="0.5" y="0.5" width="22" height="19" rx="3"></rect>
                </g>
            </g>
        </g>
    </g>
</svg>