<?xml version="1.0" encoding="UTF-8"?>
<svg width="66px" height="87px" viewBox="0 0 66 87" version="1.1" xmlns="http://www.w3.org/2000/svg" xmlns:xlink="http://www.w3.org/1999/xlink">
    <!-- Generator: Sketch 55.2 (78181) - https://sketchapp.com -->
    <title>א copy 6</title>
    <desc>Created with Sketch.</desc>
    <g id="fontune" stroke="none" stroke-width="1" fill="none" fill-rule="evenodd">
        <g id="Choose-font-" transform="translate(-430.000000, -385.000000)" fill="#F4F6FA">
            <g id="Group-2" transform="translate(143.000000, 329.000000)">
                <path d="M352.463062,62.3898173 L332.143062,105.909817 L350.223062,132.949817 C351.343062,134.709817 350.863062,136.629817 349.263062,137.749817 L343.183062,142.069817 C341.583062,143.189817 339.503062,142.709817 338.383062,141.109817 L308.463062,96.7898173 C303.663062,100.789817 302.383062,107.189817 302.383062,116.629817 L302.383062,138.229817 C302.383062,139.989817 300.943062,141.589817 299.183062,141.589817 L291.343062,141.589817 C289.583062,141.589817 287.983062,139.989817 287.983062,138.229817 L287.983062,116.629817 C287.983062,103.509817 291.343062,92.9498173 300.783062,85.4298173 L287.663062,66.0698173 C286.543062,64.4698173 286.863062,62.5498173 288.463062,61.4298173 L294.863062,56.7898173 C296.463062,55.5098173 298.543062,55.8298173 299.503062,57.4298173 L323.183062,92.9498173 L337.423062,61.4298173 C338.223062,59.8298173 339.663062,58.2298173 342.063062,58.2298173 L349.743062,58.2298173 C352.143062,58.2298173 353.423062,60.3098173 352.463062,62.3898173 Z" id="א-copy-6"></path>
            </g>
        </g>
    </g>
</svg>