<?xml version="1.0" encoding="UTF-8"?>
<svg width="87px" height="92px" viewBox="0 0 87 92" version="1.1" xmlns="http://www.w3.org/2000/svg" xmlns:xlink="http://www.w3.org/1999/xlink">
    <!-- Generator: Sketch 55.2 (78181) - https://sketchapp.com -->
    <title>א</title>
    <desc>Created with Sketch.</desc>
    <g id="fontune" stroke="none" stroke-width="1" fill="none" fill-rule="evenodd">
        <g id="Choose-font-" transform="translate(-639.000000, -380.000000)" fill="#F4F6FA">
            <g id="Group-2" transform="translate(143.000000, 329.000000)">
                <path d="M496,139.48 L500.32,123.48 L509.6,122.68 L509.6,101.72 C509.6,94.52 511.04,90.04 516.48,81.72 L506.4,73.56 L511.2,52.6 L516.48,51 C517.76,56.92 519.52,60.12 522.72,63.64 L547.04,90.36 C550.72,85.72 552.96,79.96 552.96,75.16 C552.96,74.04 552.8,72.6 552.64,71 L550.88,56.6 L578.4,56.6 L579.36,74.36 L565.92,74.36 L552.48,96.12 L583.04,124.92 L577.12,142.2 L575.84,142.2 C565.92,129.72 562.24,125.56 548.16,111.64 C541.12,104.6 534.56,98.36 528.32,92.6 L522.72,87.32 C520.16,92.28 519.68,94.52 519.68,100.6 C519.68,108.76 521.44,115 527.04,126.2 L528.32,128.76 L525.76,139.48 L496,139.48 Z" id="א"></path>
            </g>
        </g>
    </g>
</svg>