<?xml version="1.0" encoding="UTF-8"?>
<svg width="14px" height="10px" viewBox="0 0 14 10" version="1.1" xmlns="http://www.w3.org/2000/svg" xmlns:xlink="http://www.w3.org/1999/xlink">
    <!-- Generator: Sketch 55.2 (78181) - https://sketchapp.com -->
    <title>Path</title>
    <desc>Created with Sketch.</desc>
    <g id="fontune" stroke="none" stroke-width="1" fill="none" fill-rule="evenodd">
        <g id="Choose-synth-mono" transform="translate(-1194.000000, -667.000000)" fill="#202020" fill-rule="nonzero">
            <g id="Group-13" transform="translate(1135.000000, 656.000000)">
                <g id="Group-10" transform="translate(16.000000, 9.000000)">
                    <path d="M52.4274373,2.15039292 C52.2367101,1.94986903 51.919276,1.94986903 51.72188,2.15039292 C51.5311527,2.34414235 51.5311527,2.66660645 51.72188,2.85990425 L55.2994601,6.49417397 L43.4939346,6.49417397 C43.2187361,6.4946256 43,6.71682775 43,6.99638696 C43,7.27594617 43.2187361,7.5053744 43.4939346,7.5053744 L55.2994601,7.5053744 L51.72188,11.1328697 C51.5311527,11.3333936 51.5311527,11.6563093 51.72188,11.8496071 C51.919276,12.050131 52.2371547,12.050131 52.4274373,11.8496071 L56.851953,7.35498148 C57.049349,7.16123205 57.049349,6.83876795 56.851953,6.64547015 L52.4274373,2.15039292 Z" id="Path"></path>
                </g>
            </g>
        </g>
    </g>
</svg>