<?xml version="1.0" encoding="UTF-8"?>
<svg width="51px" height="51px" viewBox="0 0 51 51" version="1.1" xmlns="http://www.w3.org/2000/svg" xmlns:xlink="http://www.w3.org/1999/xlink">
    <!-- Generator: Sketch 55.2 (78181) - https://sketchapp.com -->
    <title>after-effects</title>
    <desc>Created with Sketch.</desc>
    <g id="fontune" stroke="none" stroke-width="1" fill="none" fill-rule="evenodd">
        <g id="download" transform="translate(-149.000000, -450.000000)">
            <g id="after-effects" transform="translate(149.000000, 450.000000)">
                <path d="M51,43.0156556 C51,47.4253092 47.4253092,51 43.0156556,51 L7.98434442,51 C3.5746908,51 0,47.4253092 0,43.0156556 L0,10.3796477 L10.3796477,0 L43.0156556,0 C47.4253092,0 51,3.5746908 51,7.98434442 L51,43.0156556 Z" id="Path" fill="#8F44AB"></path>
                <path d="M0,10 L6.66673077,10 C8.5,10 10,8.52557692 10,6.69230769 L10,0 L0,10 Z" id="Path" fill="#B154D4"></path>
                <polygon id="Path" fill="#5D5D5D" opacity="0.2" points="0 16 0 10 6 10"></polygon>
                <path d="M15.6124984,29.1567765 L13.8587252,34 L11,34 L17.2221779,17 L20.4654858,17 L27,34 L24.189173,34 L22.339304,29.1567765 L15.6124984,29.1567765 Z M16.4292628,26.7597014 L21.4502931,26.7597014 L19.2641387,21.0602853 L18.8796557,19.1524196 L18.4951728,21.0602853 L16.4292628,26.7597014 Z" id="Shape" fill="#B154D4" fill-rule="nonzero"></path>
                <path d="M31.5241218,29.3371723 C31.5241218,29.8134381 31.5820282,30.2523758 31.697841,30.6543944 C31.8136537,31.0568221 32.0064185,31.4015702 32.2768086,31.6884342 C32.5468139,31.9759118 32.9056988,32.2017213 33.3536557,32.3655559 C33.8011315,32.5297996 34.3571098,32.6117169 35.0210131,32.6117169 C35.6075798,32.6117169 36.0631356,32.5217203 36.3872959,32.3409091 C36.7114562,32.1605069 37.0587983,31.8816199 37.4293222,31.5037367 L39.5135672,32.4147472 C39.0192467,33.3011108 38.3632309,33.9535857 37.5452312,34.3721719 C36.7266542,34.790758 35.8467081,35 34.9052004,35 C32.975148,35 31.508539,34.4667705 30.5051811,33.3996979 C29.5014385,32.3328299 29,30.7571745 29,28.6724252 L29,28.4016174 C29,28.1884893 29,27.9830312 29,27.7860616 C29,27.5889896 29.007599,27.4005082 29.0231818,27.219697 C29.0538664,26.4318182 29.2236418,25.7177775 29.532604,25.0776771 C29.8412778,24.4375767 30.2505662,23.8877797 30.7599885,23.4280814 C31.2695069,22.9687923 31.8560735,22.6156581 32.5199769,22.3692926 C33.1835917,22.1231316 33.8863559,22 34.6273075,22 C35.4762804,22 36.2328148,22.1438922 36.8968144,22.4309607 C37.5604292,22.718336 38.1241988,23.1202524 38.5873536,23.6373234 C39.0505085,24.1544967 39.4015058,24.7784386 39.6410189,25.5086378 C39.8801473,26.239246 40,27.0474763 40,27.93384 L40,29.3372746 L31.5241218,29.3371723 L31.5241218,29.3371723 Z M31.5241218,27.0474763 L37.4756858,27.0474763 C37.4756858,26.6534347 37.4061404,26.2926304 37.2672421,25.9640407 C37.1283437,25.6359624 36.9314428,25.3569732 36.6766354,25.1268684 C36.4219243,24.8972749 36.1209458,24.7167705 35.7735075,24.5852528 C35.4261654,24.454042 35.0440026,24.3882831 34.6271151,24.3882831 C34.2410084,24.3882831 33.8630779,24.4374744 33.4924578,24.5359593 C33.1218378,24.6344441 32.7896937,24.7943925 32.4966027,25.016009 C32.203127,25.2376255 31.9675577,25.5168193 31.7902796,25.8531813 C31.6127128,26.1899525 31.5241218,26.5880849 31.5241218,27.0474763 Z" id="Shape" fill="#B154D4" fill-rule="nonzero"></path>
                <path d="M15.6124984,29.1567765 L13.8587252,34 L11,34 L17.2221779,17 L20.4654858,17 L27,34 L24.189173,34 L22.339304,29.1567765 L15.6124984,29.1567765 Z M16.4292628,26.7597014 L21.4502931,26.7597014 L19.2641387,21.0602853 L18.8796557,19.1524196 L18.4951728,21.0602853 L16.4292628,26.7597014 Z" id="Shape" fill="#FFFFFF" fill-rule="nonzero"></path>
                <path d="M31.5241218,28.3371723 C31.5241218,28.8134381 31.5820282,29.2523758 31.697841,29.6543944 C31.8136537,30.0568221 32.0064185,30.4015702 32.2768086,30.6884342 C32.5468139,30.9759118 32.9056988,31.2017213 33.3536557,31.3655559 C33.8011315,31.5297996 34.3571098,31.6117169 35.0210131,31.6117169 C35.6075798,31.6117169 36.0631356,31.5217203 36.3872959,31.3409091 C36.7114562,31.1605069 37.0587983,30.8816199 37.4293222,30.5037367 L39.5135672,31.4147472 C39.0192467,32.3011108 38.3632309,32.9535857 37.5452312,33.3721719 C36.7266542,33.790758 35.8467081,34 34.9052004,34 C32.975148,34 31.508539,33.4667705 30.5051811,32.3996979 C29.5014385,31.3328299 29,29.7571745 29,27.6724252 L29,27.4016174 C29,27.1884893 29,26.9830312 29,26.7860616 C29,26.5889896 29.007599,26.4005082 29.0231818,26.219697 C29.0538664,25.4318182 29.2236418,24.7177775 29.532604,24.0776771 C29.8412778,23.4375767 30.2505662,22.8877797 30.7599885,22.4280814 C31.2695069,21.9687923 31.8560735,21.6156581 32.5199769,21.3692926 C33.1835917,21.1231316 33.8863559,21 34.6273075,21 C35.4762804,21 36.2328148,21.1438922 36.8968144,21.4309607 C37.5604292,21.718336 38.1241988,22.1202524 38.5873536,22.6373234 C39.0505085,23.1544967 39.4015058,23.7784386 39.6410189,24.5086378 C39.8801473,25.239246 40,26.0474763 40,26.93384 L40,28.3372746 L31.5241218,28.3371723 L31.5241218,28.3371723 Z M31.5241218,26.0474763 L37.4756858,26.0474763 C37.4756858,25.6534347 37.4061404,25.2926304 37.2672421,24.9640407 C37.1283437,24.6359624 36.9314428,24.3569732 36.6766354,24.1268684 C36.4219243,23.8972749 36.1209458,23.7167705 35.7735075,23.5852528 C35.4261654,23.454042 35.0440026,23.3882831 34.6271151,23.3882831 C34.2410084,23.3882831 33.8630779,23.4374744 33.4924578,23.5359593 C33.1218378,23.6344441 32.7896937,23.7943925 32.4966027,24.016009 C32.203127,24.2376255 31.9675577,24.5168193 31.7902796,24.8531813 C31.6127128,25.1899525 31.5241218,25.5880849 31.5241218,26.0474763 Z" id="Shape" fill="#FFFFFF" fill-rule="nonzero"></path>
            </g>
        </g>
    </g>
</svg>