<?xml version="1.0" encoding="UTF-8"?>
<svg width="51px" height="51px" viewBox="0 0 51 51" version="1.1" xmlns="http://www.w3.org/2000/svg" xmlns:xlink="http://www.w3.org/1999/xlink">
    <!-- Generator: Sketch 55.2 (78181) - https://sketchapp.com -->
    <title>ai</title>
    <desc>Created with Sketch.</desc>
    <g id="fontune" stroke="none" stroke-width="1" fill="none" fill-rule="evenodd">
        <g id="download" transform="translate(-433.000000, -450.000000)">
            <g id="ai" transform="translate(433.000000, 450.000000)">
                <path d="M51,43.0156556 C51,47.4253092 47.4253092,51 43.0156556,51 L7.98434442,51 C3.5746908,51 0,47.4253092 0,43.0156556 L0,10.3796477 L10.3796477,0 L43.0156556,0 C47.4253092,0 51,3.5746908 51,7.98434442 L51,43.0156556 Z" id="Path" fill="#F3C40F"></path>
                <path d="M19.7574599,29.8351996 L18.003499,34.592771 L15.1442055,34.592771 L21.3674031,17.8934149 L24.6111429,17.8934149 L31.146728,34.592771 L28.3354403,34.592771 L26.4852681,29.8351996 L19.7574599,29.8351996 Z M20.5743581,27.4805166 L25.5962114,27.4805166 L23.4096986,21.8818943 L23.0251526,20.0077691 L22.6407065,21.8818943 L20.5743581,27.4805166 Z" id="Shape" fill="#FFD636" fill-rule="nonzero"></path>
                <path d="M34.4142211,17.6049804 C34.8144364,17.6049804 35.1507769,17.7334286 35.4233425,17.9895264 C35.7116771,18.2778611 35.8557945,18.6143014 35.8557945,18.9986477 C35.8557945,19.4154305 35.7116771,19.751771 35.4233425,20.0077691 C35.1507769,20.2641663 34.8143366,20.3923151 34.4142211,20.3923151 C33.9974384,20.3923151 33.6610978,20.2642661 33.405,20.0077691 C33.1166654,19.751771 32.9725479,19.4153307 32.9725479,18.9986477 C32.9725479,18.6142016 33.1166654,18.2777613 33.405,17.9895264 C33.6610978,17.7334286 33.9975382,17.6049804 34.4142211,17.6049804 Z M33.164771,34.592771 L33.164771,22.4827162 L35.7838356,22.4827162 L35.7838356,34.592771 L33.164771,34.592771 L33.164771,34.592771 Z" id="Shape" fill="#FFD636" fill-rule="nonzero"></path>
                <polygon id="Path" fill="#5D5D5D" opacity="0.2" points="0 15.8422368 0 10.2798434 5.5358454 10.2798434"></polygon>
                <path d="M0,10.3796477 L6.9198317,10.3796477 C8.82270059,10.3796477 10.3796477,8.84924853 10.3796477,6.94637965 L10.3796477,0 L0,10.3796477 Z" id="Path" fill="#FFD636"></path>
                <path d="M19.7574599,29.2363738 L18.003499,33.9939452 L15.1442055,33.9939452 L21.3674031,17.294589 L24.6111429,17.294589 L31.146728,33.9939452 L28.3354403,33.9939452 L26.4852681,29.2363738 L19.7574599,29.2363738 Z M20.5743581,26.8816908 L25.5962114,26.8816908 L23.4096986,21.2830685 L23.0251526,19.4089432 L22.6407065,21.2830685 L20.5743581,26.8816908 Z" id="Shape" fill="#FFFFFF" fill-rule="nonzero"></path>
                <path d="M34.4142211,17.0061546 C34.8144364,17.0061546 35.1507769,17.1346027 35.4233425,17.3907006 C35.7116771,17.6790352 35.8557945,18.0154755 35.8557945,18.3998219 C35.8557945,18.8166047 35.7116771,19.1529452 35.4233425,19.4089432 C35.1507769,19.6653405 34.8143366,19.7934892 34.4142211,19.7934892 C33.9974384,19.7934892 33.6610978,19.6654403 33.405,19.4089432 C33.1166654,19.1529452 32.9725479,18.8165049 32.9725479,18.3998219 C32.9725479,18.0153757 33.1166654,17.6789354 33.405,17.3907006 C33.6610978,17.1346027 33.9975382,17.0061546 34.4142211,17.0061546 Z M33.164771,33.9939452 L33.164771,21.8838904 L35.7838356,21.8838904 L35.7838356,33.9939452 L33.164771,33.9939452 L33.164771,33.9939452 Z" id="Shape" fill="#FFFFFF" fill-rule="nonzero"></path>
            </g>
        </g>
    </g>
</svg>